<mxfile host="app.diagrams.net" modified="2023-08-04T17:40:33.126Z" agent="Mozilla/5.0 (Windows NT 10.0; Win64; x64) AppleWebKit/537.36 (KHTML, like Gecko) Chrome/115.0.0.0 Safari/537.36" etag="Nb-C2Hec2Kx6zofdshhQ" version="21.6.6" type="device">
  <diagram id="ECNc27xMmV9NGGRQFEhQ" name="Page-1">
    <mxGraphModel dx="634" dy="906" grid="1" gridSize="10" guides="1" tooltips="1" connect="1" arrows="1" fold="1" page="1" pageScale="1" pageWidth="827" pageHeight="1169" math="0" shadow="0">
      <root>
        <mxCell id="0" />
        <mxCell id="1" parent="0" />
        <mxCell id="AKihD957ocTdcAzLTjZe-27" value="" style="whiteSpace=wrap;html=1;aspect=fixed;fillColor=#f0a30a;fontColor=#000000;strokeColor=#BD7000;" vertex="1" parent="1">
          <mxGeometry x="205" y="281" width="148" height="148" as="geometry" />
        </mxCell>
        <mxCell id="AKihD957ocTdcAzLTjZe-30" style="edgeStyle=orthogonalEdgeStyle;rounded=0;orthogonalLoop=1;jettySize=auto;html=1;entryX=0;entryY=0.5;entryDx=0;entryDy=0;entryPerimeter=0;endArrow=none;endFill=0;" edge="1" parent="1" target="AKihD957ocTdcAzLTjZe-2">
          <mxGeometry relative="1" as="geometry">
            <mxPoint x="353" y="356" as="sourcePoint" />
          </mxGeometry>
        </mxCell>
        <mxCell id="AKihD957ocTdcAzLTjZe-35" style="edgeStyle=orthogonalEdgeStyle;rounded=0;orthogonalLoop=1;jettySize=auto;html=1;endArrow=none;endFill=0;" edge="1" parent="1" source="AKihD957ocTdcAzLTjZe-2" target="AKihD957ocTdcAzLTjZe-4">
          <mxGeometry relative="1" as="geometry" />
        </mxCell>
        <mxCell id="AKihD957ocTdcAzLTjZe-2" value="" style="sketch=0;points=[[0.5,0,0],[1,0.5,0],[0.5,1,0],[0,0.5,0],[0.145,0.145,0],[0.8555,0.145,0],[0.855,0.8555,0],[0.145,0.855,0]];verticalLabelPosition=bottom;html=1;verticalAlign=top;aspect=fixed;align=center;pointerEvents=1;shape=mxgraph.cisco19.rect;prIcon=router_with_firewall;fillColor=#1ba1e2;strokeColor=#006EAF;fontColor=#ffffff;" vertex="1" parent="1">
          <mxGeometry x="389" y="330" width="50" height="50" as="geometry" />
        </mxCell>
        <mxCell id="AKihD957ocTdcAzLTjZe-4" value="" style="sketch=0;pointerEvents=1;shadow=0;dashed=0;html=1;strokeColor=none;fillColor=#434445;aspect=fixed;labelPosition=center;verticalLabelPosition=bottom;verticalAlign=top;align=center;outlineConnect=0;shape=mxgraph.vvd.virtual_switch;" vertex="1" parent="1">
          <mxGeometry x="470" y="336.75" width="68.87" height="36.5" as="geometry" />
        </mxCell>
        <mxCell id="AKihD957ocTdcAzLTjZe-13" value="" style="image;sketch=0;aspect=fixed;html=1;points=[];align=center;fontSize=12;image=img/lib/mscae/VirtualMachineWindows.svg;" vertex="1" parent="1">
          <mxGeometry x="290" y="370" width="50" height="46" as="geometry" />
        </mxCell>
        <mxCell id="AKihD957ocTdcAzLTjZe-19" value="" style="image;sketch=0;aspect=fixed;html=1;points=[];align=center;fontSize=12;image=img/lib/mscae/VirtualMachineWindows.svg;" vertex="1" parent="1">
          <mxGeometry x="290" y="300" width="50" height="46" as="geometry" />
        </mxCell>
        <mxCell id="AKihD957ocTdcAzLTjZe-23" value="" style="sketch=0;aspect=fixed;pointerEvents=1;shadow=0;dashed=0;html=1;strokeColor=none;labelPosition=center;verticalLabelPosition=bottom;verticalAlign=top;align=center;fillColor=#00188D;shape=mxgraph.mscae.enterprise.windows_server" vertex="1" parent="1">
          <mxGeometry x="220" y="330" width="39" height="50" as="geometry" />
        </mxCell>
      </root>
    </mxGraphModel>
  </diagram>
</mxfile>
